<svg width="88.000000" height="88.000000" viewBox="0 0 88 88" fill="none" xmlns="http://www.w3.org/2000/svg" xmlns:xlink="http://www.w3.org/1999/xlink">
	<desc>
			Created with Pixso.
	</desc>
	<defs/>
	<circle id="Ellipse 1" cx="44.000000" cy="44.000000" r="44.000000" fill="#FFBD13" fill-opacity="1.000000"/>
	<path id="-40%" d="M53.63 49.08Q54.23 46.98 54.23 44.15Q54.23 41.3 53.63 39.22Q53.02 37.13 51.95 35.77Q51.06 34.63 49.9 33.98Q49.66 33.85 49.41 33.73Q49.08 33.58 48.74 33.47Q47.57 33.07 46.26 33.07Q44.84 33.07 43.59 33.53Q43.35 33.62 43.11 33.73Q42.95 33.81 42.79 33.89Q41.55 34.55 40.6 35.77Q39.53 37.13 38.93 39.22Q38.33 41.3 38.33 44.15Q38.33 46.98 38.93 49.08Q39.53 51.17 40.6 52.53Q41.53 53.73 42.76 54.4Q42.93 54.49 43.11 54.57Q43.35 54.68 43.59 54.77Q44.84 55.24 46.26 55.24Q47.57 55.24 48.74 54.84Q49.08 54.72 49.41 54.57Q49.68 54.45 49.94 54.3Q51.07 53.65 51.95 52.53Q53.02 51.17 53.63 49.08ZM65.74 40.78Q66.16 39.78 66.16 38.55Q66.16 37.29 65.78 36.27Q65.41 35.26 64.73 34.55Q64.47 34.28 64.17 34.05Q63.7 33.69 63.14 33.46Q63.12 33.45 63.1 33.45Q62.19 33.08 61.14 33.08Q60.05 33.08 59.14 33.46Q58.59 33.69 58.13 34.04Q57.82 34.27 57.56 34.55Q56.89 35.26 56.52 36.27Q56.14 37.29 56.14 38.55Q56.14 39.78 56.52 40.78Q56.89 41.77 57.56 42.46Q57.78 42.69 58.02 42.89Q58.52 43.28 59.14 43.54Q60.05 43.91 61.14 43.91Q61.63 43.91 62.11 43.82Q62.58 43.73 63.04 43.54Q63.58 43.32 64.03 42.99Q64.36 42.75 64.65 42.46Q65.33 41.77 65.74 40.78ZM36.82 48.97L36.82 46.82L34.09 46.82L34.09 33.29L30.58 33.29L20.3 47.01L20.7 48.89Q20.73 49.04 20.8 49.17Q20.9 49.34 21.06 49.47Q21.18 49.57 21.33 49.63Q21.51 49.7 21.72 49.7L30.86 49.7L30.86 55L34.09 55L34.09 49.7L36.07 49.7Q36.37 49.7 36.55 49.56Q36.59 49.52 36.62 49.49Q36.71 49.38 36.76 49.26Q36.82 49.13 36.82 48.97ZM73.83 33.49Q73.57 33.67 73.38 33.89L57.28 55L60.04 55Q60.43 55 60.7 54.84Q60.85 54.75 60.99 54.63Q61.08 54.54 61.17 54.44L77.27 33.31L74.58 33.31Q74.09 33.31 73.83 33.49ZM63.14 37.1Q63.31 37.69 63.31 38.55Q63.31 39.39 63.14 39.96Q62.97 40.52 62.68 40.87Q62.47 41.1 62.22 41.25Q62.1 41.32 61.98 41.36Q61.96 41.37 61.94 41.38Q61.56 41.51 61.14 41.51Q60.68 41.51 60.3 41.36Q60.19 41.32 60.09 41.27Q59.83 41.12 59.63 40.87Q59.35 40.52 59.18 39.96Q59.02 39.39 59.02 38.55Q59.02 37.69 59.18 37.1Q59.35 36.52 59.63 36.16Q59.85 35.87 60.14 35.72Q60.22 35.68 60.3 35.64Q60.3 35.64 60.3 35.64Q60.69 35.48 61.14 35.48Q61.5 35.48 61.82 35.59Q61.9 35.61 61.98 35.64Q62.07 35.68 62.16 35.73Q62.45 35.88 62.68 36.16Q62.97 36.52 63.14 37.1ZM50.07 40.25Q50.41 41.8 50.41 44.15Q50.41 46.51 50.07 48.05Q49.72 49.6 49.14 50.51Q48.56 51.43 47.81 51.79Q47.32 52.03 46.8 52.12Q46.53 52.16 46.26 52.16Q46.02 52.16 45.78 52.13Q45.23 52.05 44.71 51.79Q43.97 51.43 43.4 50.51Q42.84 49.6 42.5 48.05Q42.16 46.51 42.16 44.15Q42.16 41.8 42.5 40.25Q42.84 38.71 43.4 37.79Q43.97 36.87 44.71 36.51Q45.23 36.25 45.78 36.18Q46.02 36.14 46.26 36.14Q46.53 36.14 46.8 36.19Q47.32 36.27 47.81 36.51Q48.56 36.87 49.14 37.79Q49.72 38.71 50.07 40.25ZM30.86 39.72L30.86 46.82L24.26 46.82L31 37.5Q30.86 38.72 30.86 39.72ZM18.47 44.39L10.7 44.39L10.7 47.48L18.47 47.48L18.47 44.39ZM78 52.12Q78.42 51.13 78.42 49.9Q78.42 48.64 78.03 47.62Q77.65 46.59 76.98 45.89Q76.76 45.66 76.51 45.46Q76.01 45.06 75.39 44.81Q75.34 44.79 75.3 44.77Q74.41 44.42 73.39 44.42Q72.31 44.42 71.39 44.81Q70.88 45.02 70.44 45.34Q70.1 45.59 69.81 45.89Q69.14 46.59 68.77 47.62Q68.4 48.64 68.4 49.9Q68.4 51.13 68.77 52.12Q69.14 53.11 69.81 53.8Q70.06 54.06 70.35 54.28Q70.82 54.64 71.39 54.89Q72.31 55.27 73.39 55.27Q73.87 55.27 74.33 55.18Q74.82 55.08 75.3 54.89Q75.85 54.65 76.32 54.3Q76.63 54.08 76.9 53.8Q77.59 53.11 78 52.12ZM75.38 48.44Q75.55 49.03 75.55 49.9Q75.55 50.73 75.38 51.3Q75.22 51.87 74.93 52.22Q74.73 52.46 74.47 52.6Q74.36 52.67 74.23 52.72Q74.21 52.72 74.19 52.73Q73.82 52.86 73.39 52.86Q72.94 52.86 72.55 52.72Q72.46 52.68 72.38 52.64Q72.1 52.49 71.87 52.22Q71.59 51.87 71.43 51.3Q71.27 50.73 71.27 49.9Q71.27 49.03 71.43 48.44Q71.59 47.85 71.87 47.5Q72.12 47.19 72.43 47.04Q72.49 47.01 72.55 46.98Q72.55 46.98 72.56 46.98Q72.94 46.82 73.39 46.82Q73.75 46.82 74.07 46.92Q74.15 46.95 74.23 46.98Q74.33 47.02 74.42 47.07Q74.7 47.22 74.93 47.5Q75.22 47.85 75.38 48.44Z" fill="#FFFFFF" fill-opacity="1.000000" fill-rule="evenodd"/>
</svg>
