<svg width="186.678711" height="30.000000" viewBox="0 0 186.679 30" fill="none" xmlns="http://www.w3.org/2000/svg" xmlns:xlink="http://www.w3.org/1999/xlink">
	<desc>
			Created with Pixso.
	</desc>
	<defs/>
	<path id="logo" d="M23.75 4.64L23.75 0L19.29 0L19.29 22.79L23.75 22.79L23.75 15.08Q23.75 13.34 24.08 12.13Q24.4 10.92 25.17 10.3Q25.95 9.68 27.3 9.68Q28.29 9.68 28.9 10.16Q29.12 10.33 29.29 10.57Q29.93 11.46 29.93 13.22L29.93 22.79L34.4 22.79L34.4 12.11Q34.4 10 33.67 8.67Q33.23 7.88 32.58 7.34Q32.15 6.97 31.62 6.73Q30.3 6.1 28.53 6.1Q27.52 6.1 26.64 6.35Q26.07 6.51 25.56 6.8Q25.29 6.94 25.03 7.13Q24.31 7.66 23.78 8.51L23.55 8.51Q23.59 8.05 23.67 6.95Q23.75 5.85 23.75 4.64ZM13.27 19.75Q13.96 18.48 13.96 16.84Q13.96 15.16 13.33 14.02Q12.7 12.89 11.53 12.04Q10.37 11.2 8.73 10.42Q7.38 9.78 6.48 9.3Q5.58 8.81 5.13 8.29Q5 8.14 4.91 7.98Q4.68 7.56 4.68 7.01Q4.68 6.47 4.9 6.04Q4.94 5.96 4.99 5.88Q5.03 5.81 5.08 5.75Q5.38 5.35 5.9 5.11Q6.5 4.84 7.35 4.84Q7.94 4.84 8.51 4.92Q9.13 5 9.74 5.17Q10.91 5.5 12.39 6.1L13.85 2.57Q12.2 1.84 10.68 1.45Q9.16 1.06 7.5 1.06Q5.27 1.06 3.64 1.79Q2.35 2.36 1.53 3.33Q1.31 3.59 1.12 3.88Q1.11 3.89 1.1 3.91Q0.24 5.26 0.24 7.16Q0.24 8.62 0.75 9.67Q1.25 10.72 2.05 11.45Q2.84 12.18 3.72 12.69Q4.59 13.19 5.34 13.54Q6.53 14.12 7.47 14.61Q8.42 15.11 8.96 15.68Q9.21 15.95 9.34 16.26Q9.5 16.62 9.5 17.06Q9.5 17.61 9.29 18.06Q9.25 18.15 9.19 18.23Q8.89 18.75 8.21 19.04Q7.52 19.33 6.41 19.33Q4.8 19.33 3.16 18.79Q1.52 18.25 0 17.57L0 21.79Q0.87 22.22 1.85 22.5Q2.82 22.79 3.88 22.93Q4.95 23.08 6.06 23.08Q8.58 23.08 10.34 22.32Q11.91 21.64 12.81 20.47Q12.93 20.31 13.03 20.15Q13.16 19.96 13.27 19.75ZM55.14 18.2Q55.68 16.62 55.68 14.57Q55.68 11.85 54.67 9.96Q53.99 8.69 52.96 7.83Q52.46 7.41 51.87 7.08Q51.81 7.05 51.76 7.03Q50.02 6.1 47.79 6.1Q45.31 6.1 43.53 7.08Q42.84 7.46 42.28 7.97Q41.37 8.79 40.77 9.96Q39.81 11.85 39.81 14.57Q39.81 16.62 40.38 18.2Q40.96 19.79 42.03 20.88Q42.47 21.33 42.97 21.69Q43.69 22.2 44.53 22.52Q45.97 23.08 47.7 23.08Q49.55 23.08 51.02 22.52Q52.05 22.13 52.88 21.48Q53.23 21.2 53.54 20.88Q54.59 19.79 55.14 18.2ZM72.84 6.66Q71.7 6.1 70.29 6.1Q69.12 6.1 68.23 6.43Q67.34 6.76 66.71 7.32Q66.08 7.88 65.64 8.54L65.44 8.54L64.81 6.41L61.18 6.41L61.18 30L65.64 30L65.64 23.39Q65.64 22.8 65.59 22.19Q65.53 21.57 65.41 20.99L65.64 20.99Q66.08 21.53 66.68 22Q67.28 22.48 68.13 22.78Q68.98 23.08 70.17 23.08Q71.47 23.08 72.56 22.6Q73.02 22.4 73.44 22.11Q74.86 21.15 75.66 19.25Q76.47 17.35 76.47 14.57Q76.47 10.41 74.76 8.26Q73.93 7.2 72.84 6.66ZM66.99 10.16Q67.68 9.68 68.85 9.68Q69.79 9.68 70.43 10.11Q70.87 10.4 71.17 10.89Q71.91 12.11 71.91 14.51Q71.91 16.11 71.58 17.21Q71.25 18.32 70.6 18.89Q70.47 19 70.34 19.08Q69.75 19.46 68.91 19.46Q67.67 19.46 66.96 18.89Q66.24 18.32 65.94 17.22Q65.64 16.12 65.64 14.54L65.64 14.06Q65.67 12.58 65.99 11.61Q66.28 10.71 66.91 10.22Q66.95 10.19 66.99 10.16ZM44.71 17.28Q44.36 16.18 44.36 14.57Q44.36 12.14 45.16 10.92Q45.39 10.57 45.7 10.32Q46.47 9.71 47.73 9.71Q48.93 9.71 49.68 10.25Q49.7 10.26 49.72 10.28Q50.43 10.82 50.77 11.87Q51.11 12.94 51.11 14.57Q51.11 16.18 50.77 17.28Q50.43 18.38 49.69 18.94Q48.95 19.49 47.76 19.49Q46.56 19.49 45.81 18.94Q45.06 18.38 44.71 17.28Z" fill="#2D2D2D" fill-opacity="1.000000" fill-rule="evenodd"/>
	<path id="logo" d="M129.15 22.79L133.62 22.79L133.62 0L129.15 0L129.15 22.79ZM144 0.42Q143.3 0 142.35 0Q141.34 0 140.63 0.46Q140.55 0.51 140.47 0.58Q139.92 1.07 139.92 2.18Q139.92 3.27 140.46 3.77Q140.54 3.84 140.63 3.9Q140.66 3.92 140.69 3.94Q141.38 4.37 142.35 4.37Q143.26 4.37 143.94 3.98Q144 3.94 144.07 3.9Q144.16 3.83 144.25 3.76Q144.78 3.26 144.78 2.18Q144.78 1.08 144.24 0.59Q144.16 0.52 144.07 0.46Q144.03 0.44 144 0.42ZM101.14 16.56Q101.75 14.53 101.75 12.05Q101.75 8.71 100.66 6.24Q100.03 4.8 99.01 3.74Q98.27 2.97 97.32 2.4Q95.07 1.04 91.58 1.04Q88.08 1.04 85.81 2.4Q84.8 3.01 84.02 3.84Q83.05 4.87 82.45 6.23Q81.36 8.7 81.36 12.02Q81.36 14.51 81.98 16.55Q82.59 18.58 83.84 20.05Q84.07 20.31 84.31 20.55Q85.44 21.65 87.01 22.3Q88.93 23.08 91.56 23.08Q94.18 23.08 96.1 22.3Q97.67 21.65 98.8 20.55Q99.04 20.31 99.27 20.05Q100.52 18.58 101.14 16.56ZM86.68 15.91Q86.12 14.29 86.12 12.05Q86.12 9.79 86.68 8.18Q87.17 6.77 88.15 5.93Q88.3 5.8 88.46 5.69Q89.67 4.81 91.58 4.81Q93.71 4.81 94.95 5.86Q95.4 6.24 95.73 6.75Q96.99 8.68 96.99 12.05Q96.99 14.29 96.44 15.91Q95.97 17.31 95 18.15Q94.85 18.28 94.69 18.4Q93.49 19.27 91.56 19.27Q89.65 19.27 88.45 18.4Q88.31 18.3 88.17 18.18Q87.18 17.34 86.68 15.91ZM120.73 7.18Q119.22 6.1 116.94 6.1Q115.91 6.1 114.95 6.35Q114.08 6.58 113.34 7.04Q113.28 7.08 113.21 7.13Q113.07 7.23 112.93 7.33Q112.33 7.81 111.9 8.51L111.65 8.51L111.05 6.41L107.64 6.41L107.64 22.79L112.11 22.79L112.11 15.08Q112.11 12.46 112.85 11.07Q113.05 10.7 113.34 10.43Q114.14 9.68 115.65 9.68Q116.67 9.68 117.28 10.17Q117.49 10.34 117.65 10.57Q118.29 11.46 118.29 13.22L118.29 22.79L122.76 22.79L122.76 12.11Q122.76 9.01 121.21 7.58Q121.18 7.56 121.16 7.53Q120.95 7.35 120.73 7.18ZM164.15 7.18Q162.65 6.1 160.37 6.1Q159.34 6.1 158.38 6.35Q157.5 6.58 156.77 7.04Q156.7 7.08 156.64 7.13Q156.5 7.23 156.36 7.33Q155.76 7.81 155.33 8.51L155.08 8.51L154.48 6.41L151.07 6.41L151.07 22.79L155.53 22.79L155.53 15.08Q155.53 12.46 156.28 11.07Q156.48 10.7 156.77 10.43Q157.57 9.68 159.08 9.68Q160.09 9.68 160.71 10.17Q160.92 10.34 161.08 10.57Q161.71 11.46 161.71 13.22L161.71 22.79L166.18 22.79L166.18 12.11Q166.18 9.01 164.64 7.58Q164.61 7.56 164.59 7.53Q164.38 7.35 164.15 7.18ZM183.25 6.97Q181.61 6.1 179.34 6.1Q177.02 6.1 175.28 7.06Q174.78 7.34 174.35 7.69Q173.26 8.57 172.56 9.93Q171.59 11.85 171.59 14.72Q171.59 17.54 172.66 19.4Q173.27 20.45 174.13 21.2Q174.81 21.78 175.64 22.17Q177.53 23.08 179.99 23.08Q181.88 23.08 183.21 22.8Q183.85 22.67 184.46 22.46Q185.12 22.23 185.75 21.92L185.75 18.47Q184.37 19.11 183.07 19.43Q181.77 19.76 180.2 19.76Q178.6 19.76 177.59 18.98Q177.41 18.84 177.25 18.68Q177.13 18.56 177.03 18.44Q176.18 17.4 176.11 15.71L186.67 15.71L186.67 13.54Q186.67 11.16 185.78 9.5Q185.3 8.61 184.61 7.95Q184.01 7.38 183.25 6.97ZM144.58 22.79L144.58 6.41L140.11 6.41L140.11 22.79L144.58 22.79ZM177.86 9.63Q178.52 9.28 179.36 9.28Q180.42 9.28 181.1 9.74Q181.36 9.91 181.57 10.13Q181.91 10.49 182.13 10.97Q182.47 11.74 182.48 12.74L176.22 12.74Q176.35 10.95 177.2 10.12Q177.5 9.82 177.86 9.63Z" fill="#3670C7" fill-opacity="1.000000" fill-rule="evenodd"/>
</svg>
