<svg width="26.234375" height="26.234985" viewBox="0 0 26.2344 26.235" fill="none" xmlns="http://www.w3.org/2000/svg" xmlns:xlink="http://www.w3.org/1999/xlink">
	<desc>
			Created with Pixso.
	</desc>
	<defs/>
	<path id="Vector" d="M18.75 16.5L17.56 16.5L17.14 16.09C18.61 14.38 19.5 12.16 19.5 9.75C19.5 4.36 15.13 0 9.75 0C4.36 0 0 4.36 0 9.75C0 15.13 4.36 19.5 9.75 19.5C12.16 19.5 14.38 18.61 16.09 17.14L16.5 17.56L16.5 18.75L24 26.23L26.23 24L18.75 16.5ZM9.75 16.5C6.01 16.5 3 13.48 3 9.75C3 6.01 6.01 3 9.75 3C13.48 3 16.5 6.01 16.5 9.75C16.5 13.48 13.48 16.5 9.75 16.5Z" fill="#FFFFFF" fill-opacity="1.000000" fill-rule="nonzero"/>
</svg>
