<svg width="36.000000" height="36.000000" viewBox="0 0 36 36" fill="none" xmlns="http://www.w3.org/2000/svg" xmlns:xlink="http://www.w3.org/1999/xlink">
	<desc>
			Created with Pixso.
	</desc>
	<defs>
		<clipPath id="clip2_29">
			<rect id="shopping_cart" rx="-0.500000" width="35.000000" height="35.000000" transform="translate(0.500000 0.500000)" fill="white" fill-opacity="0"/>
		</clipPath>
	</defs>
	<rect id="shopping_cart" rx="-0.500000" width="35.000000" height="35.000000" transform="translate(0.500000 0.500000)" fill="#FFFFFF" fill-opacity="0"/>
	<g clip-path="url(#clip2_29)">
		<path id="Vector" d="M10.5 27C8.84 27 7.51 28.35 7.51 30C7.51 31.65 8.84 33 10.5 33C12.15 33 13.5 31.65 13.5 30C13.5 28.35 12.15 27 10.5 27ZM1.5 3L1.5 6L4.5 6L9.9 17.38L7.87 21.06C7.63 21.48 7.5 21.97 7.5 22.5C7.5 24.15 8.84 25.5 10.5 25.5L28.5 25.5L28.5 22.5L11.13 22.5C10.91 22.5 10.75 22.33 10.75 22.12L10.8 21.94L12.15 19.5L23.32 19.5C24.44 19.5 25.43 18.88 25.94 17.95L31.32 8.21C31.43 8.01 31.5 7.75 31.5 7.5C31.5 6.67 30.82 6 30 6L7.81 6L6.4 3L1.5 3ZM25.5 27C23.84 27 22.51 28.35 22.51 30C22.51 31.65 23.84 33 25.5 33C27.15 33 28.5 31.65 28.5 30C28.5 28.35 27.15 27 25.5 27Z" fill="#2D2D2D" fill-opacity="1.000000" fill-rule="nonzero"/>
		<circle id="Ellipse 8" cx="29.000000" cy="7.000000" r="7.000000" fill="#FFFFFF" fill-opacity="1.000000"/>
		<path id="2" d="M32.25 11.5Q32.1 11.39 31.86 11.39L29.26 11.39Q28.97 11.39 28.65 11.44Q28.32 11.49 27.99 11.59L30.27 9.26Q30.68 8.84 31.05 8.43Q31.42 8.03 31.7 7.59Q31.96 7.19 32.12 6.75Q32.13 6.71 32.14 6.68Q32.3 6.2 32.3 5.65Q32.3 4.99 32.07 4.46Q31.91 4.09 31.65 3.79Q31.55 3.66 31.43 3.55Q31.01 3.18 30.43 2.97Q29.85 2.76 29.15 2.76Q28.48 2.76 27.9 2.95Q27.4 3.1 27 3.39Q26.93 3.44 26.86 3.5Q26.86 3.5 26.86 3.5Q26.41 3.87 26.11 4.42Q25.81 4.97 25.7 5.69L26.61 5.85Q26.97 5.91 27.16 5.81Q27.35 5.7 27.47 5.38Q27.53 5.16 27.64 4.97Q27.66 4.94 27.67 4.92Q27.74 4.83 27.81 4.74Q27.9 4.64 28.02 4.55Q28.22 4.39 28.48 4.31Q28.75 4.22 29.06 4.22Q29.39 4.22 29.66 4.31Q29.86 4.38 30.02 4.51Q30.08 4.55 30.12 4.6Q30.31 4.79 30.42 5.06Q30.53 5.34 30.53 5.7Q30.53 6.1 30.42 6.46Q30.31 6.82 30.1 7.17Q29.9 7.52 29.6 7.88Q29.29 8.23 28.91 8.63L25.84 11.71Q25.7 11.83 25.63 11.99Q25.61 12.02 25.6 12.06Q25.53 12.25 25.53 12.42L25.53 13L32.47 13L32.47 11.96Q32.47 11.77 32.39 11.64Q32.35 11.59 32.31 11.54Q32.28 11.52 32.25 11.5Z" fill="#3670C7" fill-opacity="1.000000" fill-rule="evenodd"/>
	</g>
</svg>
